# xmcd
#
# Track frame offsets:
#	150
#	19472
#	38279
#	54041
#	74603
#	93885
#	111217
#	125839
#	157171
#	174433
#	197070
#	221617
#	238014
#	254841
#	275258
#	294785
#
# Disc length: 4235 seconds
#
# Revision: 0
# Processed by: cddbd v1.5.2PL0 Copyright (c) Steve Scherf et al.
# Submitted via: EasyCDDAExtractor 10.0.2.1
#
DISCID=e8108910
DTITLE=Various Artist - 2007 Mainstream Stepper Vol 6
DYEAR=2007
DGENRE=R&B
TTITLE0=Gerald and Eddie Levert - Close and Personal
TTITLE1=Gerald and Eddie Levert - A Situation
TTITLE2=Tennesee Slim - Maybe
TTITLE3=Eric Roberson - Right Back To You
TTITLE4=Musiq - Teach Me
TTITLE5=Musiq - Millioniare
TTITLE6=Marcell and The Truth - Breath Love
TTITLE7=Steve Maestro - On To Something Goo
TTITLE8=T-Pain - Buy You A Drink
TTITLE9=Mayhsa - You Are My Starship
TTITLE10=Maysa' - Zoom
TTITLE11=WEndell B - Ya'll Ain't Ready
TTITLE12=Joe - It's Me
TTITLE13=R. Kelly - Freaky In The Club
TTITLE14=Ne-Yo - Go On Girl
TTITLE15=Steve Cole - Come With Me
EXTD=
EXTT0=
EXTT1=
EXTT2=
EXTT3=
EXTT4=
EXTT5=
EXTT6=
EXTT7=
EXTT8=
EXTT9=
EXTT10=
EXTT11=
EXTT12=
EXTT13=
EXTT14=
EXTT15=
PLAYORDER=
